
<svg width="auto" height="100%" viewBox="0 0 21.7436637 22.5151055" version="1.1" xmlns="http://www.w3.org/2000/svg" xmlns:xlink="http://www.w3.org/1999/xlink">
    <g id="Page-1" stroke="none" stroke-width="1" fill="none" fill-rule="evenodd">
        <g id="Group" fill="#B5BBB8" fill-rule="nonzero">
            <path d="M21.4127301,20.5066693 L16.0527301,14.9316693 C18.7921143,11.6667155 18.8949611,6.9367869 16.3000841,3.55584574 C13.7052071,0.174904576 9.10958138,-0.948939875 5.24726874,0.852917762 C1.3849561,2.6547754 -0.706639464,6.89836228 0.216828673,11.0590541 C1.14029681,15.2197459 4.83078824,18.179995 9.09273007,18.1786693 C10.9575559,18.1832397 12.777754,17.6084219 14.3017301,16.5336693 L19.7017301,22.1506693 C19.9954024,22.4563101 20.4298242,22.5820614 20.841353,22.4805541 C21.2528818,22.3790468 21.5789965,22.0657021 21.696853,21.6585541 C21.8147095,21.251406 21.7064024,20.81231 21.4127301,20.5066693 Z M9.08973007,2.36566933 C12.8016359,2.36566933 15.8107301,5.37476353 15.8107301,9.08666933 C15.8107301,12.7985751 12.8016359,15.8076693 9.08973007,15.8076693 C5.37782427,15.8076693 2.36873007,12.7985751 2.36873007,9.08666933 C2.37258837,5.37636287 5.3794236,2.36952764 9.08973007,2.36566933 Z" id="search"></path>
        </g>
    </g>
</svg>